<mxfile host="app.diagrams.net" modified="2022-06-10T10:14:09.224Z" agent="5.0 (Windows NT 6.1; Win64; x64) AppleWebKit/537.36 (KHTML, like Gecko) Chrome/102.0.5005.63 Safari/537.36" etag="MtClaw3ElvTWPHE9WK9b" version="19.0.3" type="github" pages="2">
  <diagram id="9nUTOFRSn5l6lXn8cFqM" name="Page-1">
    <mxGraphModel dx="942" dy="609" grid="1" gridSize="10" guides="1" tooltips="1" connect="1" arrows="1" fold="1" page="1" pageScale="1" pageWidth="850" pageHeight="1100" math="0" shadow="0">
      <root>
        <mxCell id="0" />
        <mxCell id="1" parent="0" />
        <mxCell id="gWqcmoSUkkiVOSQ8C0tx-1" value="192.168.37.129:52717" style="rounded=1;whiteSpace=wrap;html=1;" vertex="1" parent="1">
          <mxGeometry x="120" y="160" width="160" height="40" as="geometry" />
        </mxCell>
        <mxCell id="gWqcmoSUkkiVOSQ8C0tx-2" value="34.195.104.96:80" style="rounded=1;whiteSpace=wrap;html=1;" vertex="1" parent="1">
          <mxGeometry x="520" y="160" width="160" height="40" as="geometry" />
        </mxCell>
        <mxCell id="gWqcmoSUkkiVOSQ8C0tx-3" value="34.195.104.96:52717" style="rounded=1;whiteSpace=wrap;html=1;" vertex="1" parent="1">
          <mxGeometry x="120" y="240" width="160" height="40" as="geometry" />
        </mxCell>
        <mxCell id="gWqcmoSUkkiVOSQ8C0tx-4" value="192.168.37.129:34010" style="rounded=1;whiteSpace=wrap;html=1;" vertex="1" parent="1">
          <mxGeometry x="520" y="240" width="160" height="40" as="geometry" />
        </mxCell>
      </root>
    </mxGraphModel>
  </diagram>
  <diagram name="Page-2" id="yzT7SO2eRxBbWt04EY9p">
    <mxGraphModel dx="942" dy="609" grid="1" gridSize="10" guides="1" tooltips="1" connect="1" arrows="1" fold="1" page="1" pageScale="1" pageWidth="850" pageHeight="1100" math="0" shadow="0">
      <root>
        <mxCell id="fA68V4INZlJNRo-jWfuN-0" />
        <mxCell id="fA68V4INZlJNRo-jWfuN-1" parent="fA68V4INZlJNRo-jWfuN-0" />
        <mxCell id="fA68V4INZlJNRo-jWfuN-2" value="192.168.37.129:52498" style="rounded=1;whiteSpace=wrap;html=1;" vertex="1" parent="fA68V4INZlJNRo-jWfuN-1">
          <mxGeometry x="120" y="160" width="160" height="40" as="geometry" />
        </mxCell>
        <mxCell id="fA68V4INZlJNRo-jWfuN-3" value="34.195.104.96:80" style="rounded=1;whiteSpace=wrap;html=1;" vertex="1" parent="fA68V4INZlJNRo-jWfuN-1">
          <mxGeometry x="520" y="160" width="160" height="40" as="geometry" />
        </mxCell>
        <mxCell id="fA68V4INZlJNRo-jWfuN-4" value="34.195.104.96:52717" style="rounded=1;whiteSpace=wrap;html=1;" vertex="1" parent="fA68V4INZlJNRo-jWfuN-1">
          <mxGeometry x="120" y="240" width="160" height="40" as="geometry" />
        </mxCell>
        <mxCell id="fA68V4INZlJNRo-jWfuN-5" value="192.168.37.129:34010" style="rounded=1;whiteSpace=wrap;html=1;" vertex="1" parent="fA68V4INZlJNRo-jWfuN-1">
          <mxGeometry x="520" y="240" width="160" height="40" as="geometry" />
        </mxCell>
        <mxCell id="fdIYf9P8XxGsBwztYG6w-0" value="192.168.37.129:52795, 10.86.2.37:445" style="rounded=1;whiteSpace=wrap;html=1;" vertex="1" parent="fA68V4INZlJNRo-jWfuN-1">
          <mxGeometry x="40" y="480" width="160" height="40" as="geometry" />
        </mxCell>
        <mxCell id="fdIYf9P8XxGsBwztYG6w-1" value="10.86.2.37:52795, 192.168.37.129:34010" style="rounded=1;whiteSpace=wrap;html=1;" vertex="1" parent="fA68V4INZlJNRo-jWfuN-1">
          <mxGeometry x="240" y="480" width="159" height="40" as="geometry" />
        </mxCell>
        <mxCell id="fdIYf9P8XxGsBwztYG6w-3" value="Reflect: Port -&amp;gt; Proxy" style="text;html=1;align=center;verticalAlign=middle;resizable=0;points=[];autosize=1;strokeColor=none;fillColor=none;" vertex="1" parent="fA68V4INZlJNRo-jWfuN-1">
          <mxGeometry x="134" y="567" width="130" height="20" as="geometry" />
        </mxCell>
        <mxCell id="fdIYf9P8XxGsBwztYG6w-4" value="192.168.37.129:34010, 10.86.2.37:52795" style="rounded=1;whiteSpace=wrap;html=1;" vertex="1" parent="fA68V4INZlJNRo-jWfuN-1">
          <mxGeometry x="442" y="480" width="160" height="40" as="geometry" />
        </mxCell>
        <mxCell id="fdIYf9P8XxGsBwztYG6w-5" value="10.86.2.37:445, 192.168.37.129:52795" style="rounded=1;whiteSpace=wrap;html=1;" vertex="1" parent="fA68V4INZlJNRo-jWfuN-1">
          <mxGeometry x="642" y="480" width="160" height="40" as="geometry" />
        </mxCell>
        <mxCell id="fdIYf9P8XxGsBwztYG6w-7" value="Reflect: Proxy -&amp;gt; Port" style="text;html=1;align=center;verticalAlign=middle;resizable=0;points=[];autosize=1;strokeColor=none;fillColor=none;" vertex="1" parent="fA68V4INZlJNRo-jWfuN-1">
          <mxGeometry x="538" y="567" width="130" height="20" as="geometry" />
        </mxCell>
        <mxCell id="fdIYf9P8XxGsBwztYG6w-8" value="" style="endArrow=none;dashed=1;html=1;dashPattern=1 3;strokeWidth=2;rounded=0;" edge="1" parent="fA68V4INZlJNRo-jWfuN-1">
          <mxGeometry width="50" height="50" relative="1" as="geometry">
            <mxPoint x="30" y="560" as="sourcePoint" />
            <mxPoint x="800" y="560" as="targetPoint" />
          </mxGeometry>
        </mxCell>
        <mxCell id="fdIYf9P8XxGsBwztYG6w-9" value="" style="curved=1;endArrow=classic;html=1;rounded=0;exitX=0.466;exitY=1;exitDx=0;exitDy=0;exitPerimeter=0;entryX=0.573;entryY=1;entryDx=0;entryDy=0;entryPerimeter=0;" edge="1" parent="fA68V4INZlJNRo-jWfuN-1" source="fdIYf9P8XxGsBwztYG6w-4" target="fdIYf9P8XxGsBwztYG6w-5">
          <mxGeometry width="50" height="50" relative="1" as="geometry">
            <mxPoint x="482" y="640" as="sourcePoint" />
            <mxPoint x="532" y="590" as="targetPoint" />
            <Array as="points">
              <mxPoint x="532" y="620" />
              <mxPoint x="652" y="610" />
              <mxPoint x="662" y="590" />
            </Array>
          </mxGeometry>
        </mxCell>
        <mxCell id="fdIYf9P8XxGsBwztYG6w-10" value="" style="curved=1;endArrow=classic;html=1;rounded=0;exitX=0.466;exitY=1;exitDx=0;exitDy=0;exitPerimeter=0;entryX=0.573;entryY=1;entryDx=0;entryDy=0;entryPerimeter=0;" edge="1" parent="fA68V4INZlJNRo-jWfuN-1">
          <mxGeometry width="50" height="50" relative="1" as="geometry">
            <mxPoint x="114.55999999999995" y="521" as="sourcePoint" />
            <mxPoint x="331.68000000000006" y="521" as="targetPoint" />
            <Array as="points">
              <mxPoint x="130" y="621" />
              <mxPoint x="250" y="611" />
              <mxPoint x="260" y="591" />
            </Array>
          </mxGeometry>
        </mxCell>
        <mxCell id="fdIYf9P8XxGsBwztYG6w-11" value="" style="endArrow=none;dashed=1;html=1;dashPattern=1 3;strokeWidth=2;rounded=0;" edge="1" parent="fA68V4INZlJNRo-jWfuN-1">
          <mxGeometry width="50" height="50" relative="1" as="geometry">
            <mxPoint x="31" y="800" as="sourcePoint" />
            <mxPoint x="801" y="800" as="targetPoint" />
          </mxGeometry>
        </mxCell>
        <mxCell id="fdIYf9P8XxGsBwztYG6w-14" value="" style="edgeStyle=orthogonalEdgeStyle;rounded=0;orthogonalLoop=1;jettySize=auto;html=1;" edge="1" parent="fA68V4INZlJNRo-jWfuN-1" source="fdIYf9P8XxGsBwztYG6w-12" target="fdIYf9P8XxGsBwztYG6w-13">
          <mxGeometry relative="1" as="geometry" />
        </mxCell>
        <mxCell id="fdIYf9P8XxGsBwztYG6w-12" value="192.168.37.129:52796, 10.86.2.37:43010" style="rounded=1;whiteSpace=wrap;html=1;" vertex="1" parent="fA68V4INZlJNRo-jWfuN-1">
          <mxGeometry x="41" y="719" width="160" height="40" as="geometry" />
        </mxCell>
        <mxCell id="fdIYf9P8XxGsBwztYG6w-13" value="192.168.37.129:52796, 10.86.2.37:445" style="rounded=1;whiteSpace=wrap;html=1;" vertex="1" parent="fA68V4INZlJNRo-jWfuN-1">
          <mxGeometry x="40" y="840" width="160" height="40" as="geometry" />
        </mxCell>
        <mxCell id="fdIYf9P8XxGsBwztYG6w-15" value="Redirect: ALT -&amp;gt; PORT" style="text;html=1;align=center;verticalAlign=middle;resizable=0;points=[];autosize=1;strokeColor=none;fillColor=none;" vertex="1" parent="fA68V4INZlJNRo-jWfuN-1">
          <mxGeometry x="70" y="810" width="140" height="20" as="geometry" />
        </mxCell>
        <mxCell id="fdIYf9P8XxGsBwztYG6w-21" value="" style="edgeStyle=orthogonalEdgeStyle;rounded=0;orthogonalLoop=1;jettySize=auto;html=1;" edge="1" parent="fA68V4INZlJNRo-jWfuN-1" source="fdIYf9P8XxGsBwztYG6w-16" target="fdIYf9P8XxGsBwztYG6w-17">
          <mxGeometry relative="1" as="geometry" />
        </mxCell>
        <mxCell id="fdIYf9P8XxGsBwztYG6w-16" value="10.86.2.37:445,&lt;br&gt;192.168.37.129:52796" style="rounded=1;whiteSpace=wrap;html=1;" vertex="1" parent="fA68V4INZlJNRo-jWfuN-1">
          <mxGeometry x="360" y="840" width="160" height="40" as="geometry" />
        </mxCell>
        <mxCell id="fdIYf9P8XxGsBwztYG6w-17" value="10.86.2.37:43010,&lt;br&gt;192.168.37.129:52796" style="rounded=1;whiteSpace=wrap;html=1;" vertex="1" parent="fA68V4INZlJNRo-jWfuN-1">
          <mxGeometry x="360" y="719" width="160" height="40" as="geometry" />
        </mxCell>
        <mxCell id="fdIYf9P8XxGsBwztYG6w-19" value="Redirect: PORT -&amp;gt; ALT" style="text;html=1;align=center;verticalAlign=middle;resizable=0;points=[];autosize=1;strokeColor=none;fillColor=none;" vertex="1" parent="fA68V4INZlJNRo-jWfuN-1">
          <mxGeometry x="380" y="810" width="140" height="20" as="geometry" />
        </mxCell>
      </root>
    </mxGraphModel>
  </diagram>
</mxfile>
